Coordinates
version=1
nRows=13
nColumns=40
inDegrees=yes

Units are S.I. units (second, meters, Newtons, ...)
Angles are in degrees.

endheader
time	pelvis_tilt	pelvis_list	pelvis_rotation	pelvis_tx	pelvis_ty	pelvis_tz	hip_flexion_r	hip_adduction_r	hip_rotation_r	knee_angle_r	knee_angle_r_beta	ankle_angle_r	subtalar_angle_r	mtp_angle_r	hip_flexion_l	hip_adduction_l	hip_rotation_l	knee_angle_l	knee_angle_l_beta	ankle_angle_l	subtalar_angle_l	mtp_angle_l	lumbar_extension	lumbar_bending	lumbar_rotation	arm_flex_r	arm_add_r	arm_rot_r	elbow_flex_r	pro_sup_r	wrist_flex_r	wrist_dev_r	arm_flex_l	arm_add_l	arm_rot_l	elbow_flex_l	pro_sup_l	wrist_flex_l	wrist_dev_l
     24.49614286	     -7.96561759	     -2.50953574	      5.07254801	      0.88291005	      0.91643625	      0.39247565	     33.67344915	     -8.26329626	     -2.60632904	     57.11813016	     57.11813016	      2.63008744	    -18.34006195	     -8.51125578	     18.71570728	     -0.37822673	     -1.01423397	     26.96516402	     26.96516402	     18.58048553	    -16.96972208	      8.78817876	    -11.16263325	      7.40670530	      7.86909880	    -13.53662556	    -11.04777779	     -9.99867561	     32.38070976	     45.98401180	      0.00000000	      0.00000000	     43.49959057	    -17.54756534	      8.03686119	     59.98427522	     47.40578189	      0.00000000	      0.00000000
     24.52228571	     -8.34502544	     -2.90977681	      3.89896918	      0.88179282	      0.91799262	      0.39828685	     34.10107397	     -6.78708548	     -2.55113159	     52.00692891	     52.00692891	      2.51876606	    -17.44592961	    -13.60705011	     18.25295493	     -1.43080029	     -1.91018513	     25.95156097	     25.95156097	     18.33655397	    -16.79237601	      8.71821851	    -11.14604839	      7.55406974	      7.97214330	    -16.42705899	    -10.54858869	     -9.13676545	     33.57976912	     45.85436405	      0.00000000	      0.00000000	     45.76050904	    -18.64040782	      6.13128884	     63.26526762	     47.59336136	      0.00000000	      0.00000000
     24.54842857	     -8.70110776	     -3.20956070	      2.64723767	      0.88116735	      0.91919536	      0.40479779	     33.94376857	     -5.22697233	     -2.30834760	     46.01286881	     46.01286881	      2.86135878	    -15.35331789	    -16.48479083	     17.71249599	     -2.41890535	     -2.86482346	     24.99107269	     24.99107269	     18.14718376	    -16.72787268	      8.65687535	    -11.09417856	      7.58156781	      8.21600651	    -18.88791976	    -10.23477729	     -8.04627161	     34.41856891	     45.73727254	      0.00000000	      0.00000000	     48.17980474	    -19.59838437	      4.62453233	     65.52996559	     47.73493388	      0.00000000	      0.00000000
     24.57457143	     -8.98678634	     -3.38772908	      1.43353092	      0.88118518	      0.91994763	      0.41174311	     33.23566024	     -3.81922244	     -2.13173001	     39.68601379	     39.68601379	      3.86852923	    -11.42968545	    -16.11942046	     17.08529046	     -3.29296205	     -3.82724479	     24.17220695	     24.17220695	     18.14348084	    -16.63681997	      8.74638412	    -11.04906397	      7.49408113	      8.52149016	    -20.70366890	     -9.84919357	     -7.73712446	     34.33918925	     45.70913907	      0.00000000	      0.00000000	     50.70024023	    -20.54597071	      3.79090737	     67.11415258	     47.83090278	      0.00000000	      0.00000000
     24.60071429	     -9.23897189	     -3.37382835	      0.33382790	      0.88179722	      0.91999682	      0.41882684	     32.37176346	     -2.76492486	     -2.19049928	     33.98429076	     33.98429076	      6.21536164	     -5.65221119	    -10.25447584	     16.44076947	     -3.93204632	     -4.72015057	     23.50051056	     23.50051056	     18.03389342	    -16.72653633	      8.25355813	    -10.99227180	      7.28118619	      8.47967582	    -22.84573810	     -9.93456324	     -6.46123609	     36.63251830	     45.53782404	      0.00000000	      0.00000000	     52.37441748	    -21.53351380	      1.89534292	     69.72978468	     47.99767080	      0.00000000	      0.00000000
     24.62685714	     -9.39561187	     -3.19138762	     -0.61752115	      0.88305015	      0.91947110	      0.42610489	     31.34792205	     -1.96465093	     -2.29163584	     28.99310161	     28.99310161	      7.80858711	     -0.66737030	     -4.75008095	     15.76031875	     -4.37681517	     -5.52797203	     23.06223039	     23.06223039	     18.15952875	    -16.76876012	      7.87900897	    -10.89969742	      6.89125931	      8.61530812	    -24.23469668	     -9.87798273	     -5.61617249	     37.35062326	     45.46762980	      0.00000000	      0.00000000	     54.37263938	    -22.26726848	      1.04870666	     71.20443730	     48.08007090	      0.00000000	      0.00000000
     24.65300000	     -9.47497263	     -2.94389899	     -1.39543155	      0.88486969	      0.91859224	      0.43365016	     30.23645382	     -1.11375024	     -1.77095847	     24.78044877	     24.78044877	      7.68900698	      1.70711176	     -3.02297317	     15.03012921	     -4.73377884	     -6.22701734	     22.74476055	     22.74476055	     18.45871522	    -16.76942108	      7.77051161	    -10.76128101	      6.42165429	      8.59588274	    -24.93383363	     -9.70076635	     -5.50402521	     37.39496639	     45.45663549	      0.00000000	      0.00000000	     56.34476154	    -22.91792059	      0.58055296	     72.02828368	     48.13840586	      0.00000000	      0.00000000
     24.67914286	     -9.49327096	     -2.52393679	     -2.01449071	      0.88710591	      0.91750943	      0.44090360	     29.84615652	     -0.85306199	     -2.03326275	     23.10237301	     23.10237301	      9.91552889	      5.20717767	      4.01774416	     14.17251960	     -4.87159380	     -7.00083619	     22.32831859	     22.32831859	     18.57601047	    -16.58524415	      6.88539094	    -10.70821387	      5.87813974	      8.54123341	    -26.09962053	     -9.86672566	     -4.95130307	     39.05243912	     45.36886079	      0.00000000	      0.00000000	     57.61291137	    -23.23188639	     -0.76565074	     73.82854244	     48.25800292	      0.00000000	      0.00000000
     24.70528571	     -9.56275040	     -2.17854824	     -2.46913296	      0.88953171	      0.91637998	      0.44831838	     29.52092377	     -0.33933004	     -1.40143185	     22.04480387	     22.04480387	      9.92248889	      5.67441580	      4.55054696	     13.48801524	     -5.03712738	     -7.42827283	     22.11053952	     22.11053952	     18.85413291	    -16.60697433	      6.80368642	    -10.45124615	      5.41302767	      8.41599432	    -26.30055448	     -9.92309323	     -4.89940949	     39.10357932	     45.36487626	      0.00000000	      0.00000000	     58.97895112	    -23.61433639	     -1.07084600	     74.25268669	     48.29398108	      0.00000000	      0.00000000
     24.73142857	     -9.58701624	     -1.92695329	     -2.74002369	      0.89220174	      0.91551978	      0.45551583	     29.36268620	      0.09420983	     -1.06288171	     22.07386207	     22.07386207	     10.14548000	      5.75651061	      4.65886013	     12.66191896	     -5.25674791	     -7.78498885	     21.69645498	     21.69645498	     19.13337218	    -16.41952524	      6.71592020	    -10.22970126	      5.10712199	      8.29605040	    -26.36858599	    -10.09182038	     -4.87520374	     39.22310113	     45.36042146	      0.00000000	      0.00000000	     60.00490344	    -23.73867305	     -1.35504118	     74.70408428	     48.32697497	      0.00000000	      0.00000000
     24.75757143	     -9.51407080	     -1.62898588	     -2.87302374	      0.89503767	      0.91501242	      0.46250243	     29.30087036	      0.40315025	     -0.66550932	     22.97637194	     22.97637194	     10.60678762	      5.24105365	      4.37619132	     11.62351922	     -5.39438454	     -8.19686174	     21.05521979	     21.05521979	     19.32359337	    -15.91865601	      6.54509781	    -10.09589387	      4.74489097	      8.13459085	    -26.28961579	    -10.30548684	     -4.80699177	     39.51750548	     45.34899351	      0.00000000	      0.00000000	     60.63219558	    -23.61982463	     -1.75438079	     75.21728121	     48.36533180	      0.00000000	      0.00000000
     24.78371429	     -9.52304441	     -1.44151777	     -2.84390111	      0.89774722	      0.91455626	      0.46923469	     29.34615965	      0.73141666	     -0.39937580	     24.22268606	     24.22268606	     11.05391504	      4.44817985	      3.80536007	     10.72704878	     -5.62104122	     -8.43907164	     20.43374517	     20.43374517	     19.41675879	    -15.40077823	      6.38982882	     -9.85426356	      4.54455717	      7.91001139	    -26.12641199	    -10.62270694	     -4.77559716	     39.78740080	     45.34085277	      0.00000000	      0.00000000	     60.97238773	    -23.41057656	     -2.08070852	     75.60493940	     48.39482780	      0.00000000	      0.00000000
     24.80985714	     -9.52963345	     -1.24371390	     -2.74857908	      0.90032375	      0.91426993	      0.47569631	     29.34246965	      1.05926431	      0.02026201	     25.52470779	     25.52470779	     11.38585914	      3.14222706	      2.83587989	      9.75573746	     -5.82535529	     -8.84795231	     19.61967368	     19.61967368	     19.38030506	    -14.62068474	      5.98964143	     -9.59577183	      4.31677992	      7.61820163	    -25.84449628	    -11.00788498	     -4.63904692	     40.25214827	     45.32306613	      0.00000000	      0.00000000	     61.02911918	    -23.11282479	     -2.65563644	     76.08333086	     48.43896125	      0.00000000	      0.00000000
